<mxfile host="app.diagrams.net" modified="2022-02-17T06:12:35.303Z" agent="5.0 (Windows NT 10.0; WOW64) AppleWebKit/537.36 (KHTML, like Gecko) Chrome/97.0.4692.99 Safari/537.36 OPR/83.0.4254.27" etag="iZxcyeJPBCX-zwoce5js" version="16.5.6" type="github">
  <diagram id="kgpKYQtTHZ0yAKxKKP6v" name="Page-1">
    <mxGraphModel dx="2272" dy="764" grid="1" gridSize="10" guides="1" tooltips="1" connect="1" arrows="1" fold="1" page="1" pageScale="1" pageWidth="850" pageHeight="1100" math="0" shadow="0">
      <root>
        <mxCell id="0" />
        <mxCell id="1" parent="0" />
        <mxCell id="bdpj6q706ZwAjSxWvGq5-3" value="User Mode" style="text;html=1;align=center;verticalAlign=middle;resizable=0;points=[];autosize=1;strokeColor=none;fillColor=none;" vertex="1" parent="1">
          <mxGeometry x="-70" y="615" width="70" height="20" as="geometry" />
        </mxCell>
        <mxCell id="bdpj6q706ZwAjSxWvGq5-4" value="GUI" style="text;html=1;align=center;verticalAlign=middle;resizable=0;points=[];autosize=1;strokeColor=none;fillColor=none;" vertex="1" parent="1">
          <mxGeometry x="405" y="230" width="40" height="20" as="geometry" />
        </mxCell>
        <mxCell id="bdpj6q706ZwAjSxWvGq5-5" value="Kernel Mode" style="text;html=1;align=center;verticalAlign=middle;resizable=0;points=[];autosize=1;strokeColor=none;fillColor=none;" vertex="1" parent="1">
          <mxGeometry x="-70" y="760" width="80" height="20" as="geometry" />
        </mxCell>
        <mxCell id="bdpj6q706ZwAjSxWvGq5-6" value="" style="line;strokeWidth=2;direction=south;html=1;" vertex="1" parent="1">
          <mxGeometry x="30" y="460" width="10" height="480" as="geometry" />
        </mxCell>
        <mxCell id="bdpj6q706ZwAjSxWvGq5-7" value="" style="line;strokeWidth=4;html=1;perimeter=backbonePerimeter;points=[];outlineConnect=0;" vertex="1" parent="1">
          <mxGeometry x="-250" y="940" width="960" height="10" as="geometry" />
        </mxCell>
        <mxCell id="bdpj6q706ZwAjSxWvGq5-8" value="" style="line;strokeWidth=2;direction=south;html=1;" vertex="1" parent="1">
          <mxGeometry x="-120" y="460" width="10" height="810" as="geometry" />
        </mxCell>
        <mxCell id="bdpj6q706ZwAjSxWvGq5-9" value="sw" style="text;html=1;align=center;verticalAlign=middle;resizable=0;points=[];autosize=1;strokeColor=none;fillColor=none;" vertex="1" parent="1">
          <mxGeometry x="-235" y="690" width="30" height="20" as="geometry" />
        </mxCell>
        <mxCell id="bdpj6q706ZwAjSxWvGq5-10" value="HW" style="text;html=1;align=center;verticalAlign=middle;resizable=0;points=[];autosize=1;strokeColor=none;fillColor=none;" vertex="1" parent="1">
          <mxGeometry x="-230" y="1030" width="40" height="20" as="geometry" />
        </mxCell>
        <mxCell id="bdpj6q706ZwAjSxWvGq5-11" value="" style="whiteSpace=wrap;html=1;" vertex="1" parent="1">
          <mxGeometry x="130" y="730" width="350" height="170" as="geometry" />
        </mxCell>
        <mxCell id="bdpj6q706ZwAjSxWvGq5-12" value="" style="whiteSpace=wrap;html=1;" vertex="1" parent="1">
          <mxGeometry x="605" y="740" width="140" height="110" as="geometry" />
        </mxCell>
        <mxCell id="bdpj6q706ZwAjSxWvGq5-13" value="" style="whiteSpace=wrap;html=1;" vertex="1" parent="1">
          <mxGeometry x="130" y="330" width="640" height="300" as="geometry" />
        </mxCell>
        <mxCell id="bdpj6q706ZwAjSxWvGq5-14" value="Test Driver" style="text;html=1;align=center;verticalAlign=middle;resizable=0;points=[];autosize=1;strokeColor=none;fillColor=none;" vertex="1" parent="1">
          <mxGeometry x="140" y="910" width="70" height="20" as="geometry" />
        </mxCell>
        <mxCell id="bdpj6q706ZwAjSxWvGq5-16" value="AMD graphic Driver" style="text;html=1;align=center;verticalAlign=middle;resizable=0;points=[];autosize=1;strokeColor=none;fillColor=none;" vertex="1" parent="1">
          <mxGeometry x="550" y="890" width="120" height="20" as="geometry" />
        </mxCell>
        <mxCell id="bdpj6q706ZwAjSxWvGq5-32" style="edgeStyle=orthogonalEdgeStyle;rounded=0;orthogonalLoop=1;jettySize=auto;html=1;entryX=1;entryY=0.75;entryDx=0;entryDy=0;" edge="1" parent="1" source="bdpj6q706ZwAjSxWvGq5-17" target="bdpj6q706ZwAjSxWvGq5-18">
          <mxGeometry relative="1" as="geometry">
            <Array as="points">
              <mxPoint x="325" y="388" />
            </Array>
          </mxGeometry>
        </mxCell>
        <mxCell id="bdpj6q706ZwAjSxWvGq5-34" style="edgeStyle=orthogonalEdgeStyle;rounded=0;orthogonalLoop=1;jettySize=auto;html=1;entryX=0;entryY=0.75;entryDx=0;entryDy=0;exitX=1;exitY=0.75;exitDx=0;exitDy=0;" edge="1" parent="1" source="bdpj6q706ZwAjSxWvGq5-17" target="bdpj6q706ZwAjSxWvGq5-19">
          <mxGeometry relative="1" as="geometry" />
        </mxCell>
        <mxCell id="bdpj6q706ZwAjSxWvGq5-17" value="UI Thread" style="shape=ext;double=1;rounded=1;whiteSpace=wrap;html=1;" vertex="1" parent="1">
          <mxGeometry x="380" y="350" width="130" height="50" as="geometry" />
        </mxCell>
        <mxCell id="bdpj6q706ZwAjSxWvGq5-26" style="edgeStyle=orthogonalEdgeStyle;rounded=0;orthogonalLoop=1;jettySize=auto;html=1;exitX=1;exitY=0.25;exitDx=0;exitDy=0;entryX=0;entryY=0.25;entryDx=0;entryDy=0;" edge="1" parent="1" source="bdpj6q706ZwAjSxWvGq5-18" target="bdpj6q706ZwAjSxWvGq5-17">
          <mxGeometry relative="1" as="geometry" />
        </mxCell>
        <mxCell id="bdpj6q706ZwAjSxWvGq5-18" value="Monitor Working Thread" style="shape=ext;double=1;rounded=1;whiteSpace=wrap;html=1;" vertex="1" parent="1">
          <mxGeometry x="140" y="350" width="130" height="50" as="geometry" />
        </mxCell>
        <mxCell id="bdpj6q706ZwAjSxWvGq5-28" style="edgeStyle=orthogonalEdgeStyle;rounded=0;orthogonalLoop=1;jettySize=auto;html=1;entryX=1;entryY=0.25;entryDx=0;entryDy=0;exitX=0;exitY=0.25;exitDx=0;exitDy=0;" edge="1" parent="1" source="bdpj6q706ZwAjSxWvGq5-19" target="bdpj6q706ZwAjSxWvGq5-17">
          <mxGeometry relative="1" as="geometry" />
        </mxCell>
        <mxCell id="bdpj6q706ZwAjSxWvGq5-19" value="Test Working Thread" style="shape=ext;double=1;rounded=1;whiteSpace=wrap;html=1;dashed=1;" vertex="1" parent="1">
          <mxGeometry x="610" y="350" width="130" height="50" as="geometry" />
        </mxCell>
        <mxCell id="bdpj6q706ZwAjSxWvGq5-20" value="Device Manager Module" style="shape=ext;double=1;rounded=1;whiteSpace=wrap;html=1;" vertex="1" parent="1">
          <mxGeometry x="140" y="470" width="130" height="50" as="geometry" />
        </mxCell>
        <mxCell id="bdpj6q706ZwAjSxWvGq5-21" value="Log Module" style="shape=ext;double=1;rounded=1;whiteSpace=wrap;html=1;" vertex="1" parent="1">
          <mxGeometry x="385" y="470" width="130" height="50" as="geometry" />
        </mxCell>
        <mxCell id="bdpj6q706ZwAjSxWvGq5-22" value="QT Lib" style="shape=ext;double=1;rounded=1;whiteSpace=wrap;html=1;" vertex="1" parent="1">
          <mxGeometry x="240" y="560" width="130" height="50" as="geometry" />
        </mxCell>
        <mxCell id="bdpj6q706ZwAjSxWvGq5-23" value="Windows API" style="shape=ext;double=1;rounded=1;whiteSpace=wrap;html=1;" vertex="1" parent="1">
          <mxGeometry x="540" y="560" width="130" height="50" as="geometry" />
        </mxCell>
        <mxCell id="bdpj6q706ZwAjSxWvGq5-24" value="SmartAnalyzer Lib" style="shape=ext;double=1;rounded=1;whiteSpace=wrap;html=1;" vertex="1" parent="1">
          <mxGeometry x="620" y="470" width="130" height="50" as="geometry" />
        </mxCell>
        <mxCell id="bdpj6q706ZwAjSxWvGq5-27" value="Qt signals" style="text;html=1;strokeColor=none;fillColor=none;align=center;verticalAlign=middle;whiteSpace=wrap;rounded=0;" vertex="1" parent="1">
          <mxGeometry x="300" y="340" width="60" height="30" as="geometry" />
        </mxCell>
        <mxCell id="bdpj6q706ZwAjSxWvGq5-29" value="Qt signals" style="text;html=1;strokeColor=none;fillColor=none;align=center;verticalAlign=middle;whiteSpace=wrap;rounded=0;" vertex="1" parent="1">
          <mxGeometry x="530" y="340" width="60" height="30" as="geometry" />
        </mxCell>
        <mxCell id="bdpj6q706ZwAjSxWvGq5-33" value="Msg Q" style="text;html=1;strokeColor=none;fillColor=none;align=center;verticalAlign=middle;whiteSpace=wrap;rounded=0;" vertex="1" parent="1">
          <mxGeometry x="300" y="390" width="60" height="30" as="geometry" />
        </mxCell>
        <mxCell id="bdpj6q706ZwAjSxWvGq5-35" value="Msg Q" style="text;html=1;strokeColor=none;fillColor=none;align=center;verticalAlign=middle;whiteSpace=wrap;rounded=0;" vertex="1" parent="1">
          <mxGeometry x="530" y="390" width="60" height="30" as="geometry" />
        </mxCell>
        <mxCell id="bdpj6q706ZwAjSxWvGq5-36" value="Q" style="shape=cylinder3;whiteSpace=wrap;html=1;boundedLbl=1;backgroundOutline=1;size=15;" vertex="1" parent="1">
          <mxGeometry x="230" y="382.5" width="40" height="45" as="geometry" />
        </mxCell>
        <mxCell id="bdpj6q706ZwAjSxWvGq5-37" value="Q" style="shape=cylinder3;whiteSpace=wrap;html=1;boundedLbl=1;backgroundOutline=1;size=15;" vertex="1" parent="1">
          <mxGeometry x="610" y="380" width="40" height="45" as="geometry" />
        </mxCell>
        <mxCell id="bdpj6q706ZwAjSxWvGq5-39" value="" style="line;strokeWidth=2;html=1;dashed=1;dashPattern=1 1;" vertex="1" parent="1">
          <mxGeometry x="155" y="440" width="580" height="10" as="geometry" />
        </mxCell>
        <mxCell id="bdpj6q706ZwAjSxWvGq5-40" value="" style="line;strokeWidth=2;html=1;dashed=1;dashPattern=1 1;" vertex="1" parent="1">
          <mxGeometry x="160" y="540" width="580" height="10" as="geometry" />
        </mxCell>
        <mxCell id="bdpj6q706ZwAjSxWvGq5-41" value="" style="line;strokeWidth=2;html=1;" vertex="1" parent="1">
          <mxGeometry x="-100" y="680" width="880" height="10" as="geometry" />
        </mxCell>
        <mxCell id="bdpj6q706ZwAjSxWvGq5-42" value="" style="shape=flexArrow;endArrow=classic;startArrow=classic;html=1;rounded=0;" edge="1" parent="1">
          <mxGeometry width="100" height="100" relative="1" as="geometry">
            <mxPoint x="180" y="730" as="sourcePoint" />
            <mxPoint x="180" y="630" as="targetPoint" />
          </mxGeometry>
        </mxCell>
        <mxCell id="bdpj6q706ZwAjSxWvGq5-43" value="Q" style="shape=cylinder3;whiteSpace=wrap;html=1;boundedLbl=1;backgroundOutline=1;size=15;" vertex="1" parent="1">
          <mxGeometry x="360" y="800" width="80" height="80" as="geometry" />
        </mxCell>
      </root>
    </mxGraphModel>
  </diagram>
</mxfile>
